PathFileType	4	(X/Y/Z)	C:\Users\Basilio\Documents\Thesis Gigler\squatting_fais\c3dfiles\073\SJ_pre1\markers_experimental.trc
DataRate	CameraRate	NumFrames	NumMarkers	Units	OrigDataRate	OrigDataStartFrame	OrigNumFrames
200.000000	200.000000	4	61	mm	200.000000	518	1383
Frame#	Time	FHD			LBHD			RBHD			C7			T10			CLAV			LSHO			LUUPA			LMUPA			LDUPA			LLEP			LMEP			LRAD			LUL			LRFIN			RSHO			RUPA1			RMUPA			RDUPA			RLEP			RMEP			RRAD			RUL			RUFIN			LASI			RASI			USACR			LSACR			RSACR			LTHI1			LTHI2			LTHI3			LTHI4			LLFC			LMFC			LTIB1			LTIB2			LTIB3			LTIB4			LLMAL			LMMAL			LHEE			LMT1			LMT2			LMT5			RTHI			RTHI2			RTHI3			RTHI4			RLFC			RMFC			RTIB1			RTIB2			RTIB3			RTIB4			RLMAL			RMMAL			RHEE			RMT1			RMT2			RMT5			
		X1	Y1	Z1	X2	Y2	Z2	X3	Y3	Z3	X4	Y4	Z4	X5	Y5	Z5	X6	Y6	Z6	X7	Y7	Z7	X8	Y8	Z8	X9	Y9	Z9	X10	Y10	Z10	X11	Y11	Z11	X12	Y12	Z12	X13	Y13	Z13	X14	Y14	Z14	X15	Y15	Z15	X16	Y16	Z16	X17	Y17	Z17	X18	Y18	Z18	X19	Y19	Z19	X20	Y20	Z20	X21	Y21	Z21	X22	Y22	Z22	X23	Y23	Z23	X24	Y24	Z24	X25	Y25	Z25	X26	Y26	Z26	X27	Y27	Z27	X28	Y28	Z28	X29	Y29	Z29	X30	Y30	Z30	X31	Y31	Z31	X32	Y32	Z32	X33	Y33	Z33	X34	Y34	Z34	X35	Y35	Z35	X36	Y36	Z36	X37	Y37	Z37	X38	Y38	Z38	X39	Y39	Z39	X40	Y40	Z40	X41	Y41	Z41	X42	Y42	Z42	X43	Y43	Z43	X44	Y44	Z44	X45	Y45	Z45	X46	Y46	Z46	X47	Y47	Z47	X48	Y48	Z48	X49	Y49	Z49	X50	Y50	Z50	X51	Y51	Z51	X52	Y52	Z52	X53	Y53	Z53	X54	Y54	Z54	X55	Y55	Z55	X56	Y56	Z56	X57	Y57	Z57	X58	Y58	Z58	X59	Y59	Z59	X60	Y60	Z60	X61	Y61	Z61	

519	2.59	93.83172607421876	1040.0361328125	-957.1856079101565	-43.12226486206055	1023.059814453125	-981.7967529296877	-69.3429641723633	1013.650451660156	-848.6042480468752	-98.84620666503909	971.9855957031252	-913.6556396484377	-395.0859985351564	830.486267089844	-911.2506103515627	-70.99008941650392	819.0614013671877	-910.008239746094	-61.43407821655275	847.7817382812502	-1076.197998046875	-144.0925598144532	849.5863037109377	-1204.6474609375	-171.4024810791016	808.249694824219	-1212.9072265625	-186.3878631591797	843.4349365234377	-1260.2294921875	-272.4506530761719	818.3190917968752	-1324.89697265625	-325.0051879882813	884.1140747070315	-1310.140258789063	-440.8957519531251	704.7105712890626	-1149.664794921875	-416.1132202148439	644.8306274414064	-1185.980712890625	-419.5013732910157	692.9275512695314	-1091.481201171875	-72.96642303466798	845.0351562500002	-745.7767944335939	-163.7078857421875	878.3984985351565	-608.2194213867189	-191.9532470703125	840.4136352539065	-593.1567382812501	-211.204086303711	885.384460449219	-557.3285522460939	-287.3588867187501	863.7222290039065	-500.5047912597657	-347.1524963378907	921.4942016601565	-547.7852783203126	-460.3941955566407	724.0017700195314	-655.6716918945314	-424.9692382812501	668.5549926757814	-617.3468627929689	-422.8389282226564	703.2089843750001	-715.2092895507814	-405.7910156250001	638.3435668945314	-1035.436401367188	-410.2202453613282	616.0960693359376	-789.801208496094	-510.6055297851564	774.0574340820315	-897.0836181640627	-541.0576171875001	761.7254028320314	-923.7070312500002	-541.3668212890626	760.6295166015626	-867.4100341796877	-330.7459411621094	533.1149291992189	-1148.224731445313	-244.7808380126954	530.3375854492189	-1155.532958984375	-222.877670288086	563.8443603515626	-1126.008422851563	-212.3010864257813	477.8743286132814	-1156.237915039063	-175.4158172607422	439.5986328125001	-1161.325317382813	-155.63916015625	425.5404052734376	-1036.956298828125	-195.269271850586	252.1076202392579	-1122.21728515625	-270.9874877929688	251.8443908691407	-1170.45068359375	-240.7308349609376	225.9607696533204	-1151.093139648438	-279.6221008300782	158.9098205566407	-1117.096313476563	-394.9569396972657	87.64914703369142	-1142.868896484375	-371.7708129882813	103.7522430419922	-1056.02490234375	-457.4009094238282	53.75537490844728	-1096.594604492188	-227.2559661865235	54.1376190185547	-1093.148071289063	-232.5860900878907	54.0554656982422	-1131.367797851563	-274.3498840332032	36.40606689453126	-1182.270874023438	-405.4833984375001	546.1104125976564	-668.8147583007814	-340.0495910644532	546.3613281250001	-661.5891723632814	-322.0306701660157	573.6948242187501	-670.1249389648439	-288.4679870605469	481.7169494628907	-654.8388061523439	-170.100830078125	412.0126953125001	-652.7202758789064	-150.2104949951172	396.0948181152345	-772.6951904296877	-197.0232238769532	258.7464599609376	-736.3226928710939	-266.8430480957032	207.9180603027344	-669.1023559570314	-248.2105560302735	193.4186248779297	-710.8399658203126	-287.4215698242188	165.8096923828125	-742.5225830078126	-400.986541748047	84.17031860351564	-687.5564575195314	-383.1048583984376	98.83567047119143	-775.990905761719	-474.6281127929689	49.24055862426759	-744.7128295898439	-245.2147979736329	54.63122940063478	-719.1824951171876	-251.7044372558594	54.9219436645508	-678.7006225585939	-299.6589965820313	36.17514801025391	-635.5888671875001	
520	2.595	93.84883117675783	1039.527954101563	-957.146179199219	-43.04300689697266	1022.639343261719	-981.7622070312502	-69.04208374023439	1013.141784667969	-848.6929321289065	-98.55832672119143	971.4781494140627	-913.6047973632815	-394.9014587402345	830.1384277343752	-911.0819091796877	-70.70320129394533	818.5803222656252	-909.9504394531252	-61.3658905029297	847.2496337890627	-1076.107177734375	-143.9803924560547	849.2017822265627	-1204.720458984375	-171.1595916748047	807.847351074219	-1212.860595703125	-186.3120422363282	842.9886474609377	-1260.14892578125	-272.3420715332032	817.9842529296877	-1324.729370117188	-324.7377624511719	883.7210693359377	-1310.088134765625	-440.8333129882814	704.5034179687501	-1149.506958007813	-416.1619567871095	644.6381835937501	-1185.883422851563	-419.4266357421876	692.7290649414064	-1091.39306640625	-72.64292144775392	844.5596313476565	-745.7727050781251	-163.3441925048828	878.0661621093752	-608.1796875000001	-191.6746368408203	840.0444946289065	-593.0942993164064	-210.8164215087891	884.986022949219	-557.2403564453126	-286.9532470703126	863.3959960937502	-500.4349060058595	-346.8135681152344	921.1773071289065	-547.7039184570314	-460.0194702148439	723.7095336914064	-655.5631713867189	-424.6940917968751	668.2777709960939	-617.2190551757814	-422.5709838867189	702.8799438476564	-715.1467895507814	-405.5586853027345	638.3259277343751	-1035.488159179688	-409.7708435058595	615.8024902343751	-789.9008789062502	-510.4381103515626	773.789245605469	-896.8785400390627	-540.8247680664064	761.4923095703126	-923.5039672851565	-541.0385131835939	760.3571777343751	-867.2967529296877	-330.6633300781251	532.9459228515626	-1148.069458007813	-244.6853027343751	530.2272338867189	-1155.370239257813	-222.8059997558594	563.7467041015626	-1125.884399414063	-212.2136688232422	477.805633544922	-1156.166625976563	-175.3790435791016	439.564666748047	-1161.236694335938	-155.5079956054688	425.4526367187501	-1036.753540039063	-195.2088470458985	252.0323181152344	-1122.1923828125	-270.9349365234376	251.8715209960938	-1170.384155273438	-240.6863250732422	225.933578491211	-1151.022094726563	-279.6122741699219	158.9035949707032	-1117.06591796875	-394.9778747558595	87.67575836181642	-1142.835205078125	-371.7867126464844	103.7015762329102	-1055.965698242188	-457.4099426269532	53.77413558959962	-1096.560180664063	-227.2379608154297	54.16390991210939	-1093.12109375	-232.5633544921876	54.05809402465822	-1131.357543945313	-274.3045654296876	36.47541809082032	-1182.24169921875	-405.2301025390626	545.8265991210939	-668.7348022460939	-339.8267517089844	546.1032104492189	-661.5155639648439	-321.8676757812501	573.4741821289064	-670.0773925781251	-288.2268981933594	481.4800720214845	-654.8244018554689	-169.8659057617188	411.8493957519532	-652.6316528320314	-150.1275177001953	395.8418273925782	-772.6098632812502	-196.9719848632813	258.6512756347657	-736.3259277343751	-266.7332763671876	207.8429260253907	-669.0769042968751	-248.0861206054688	193.3029785156251	-710.9060668945314	-287.2654418945313	165.6815185546875	-742.4601440429689	-400.9852294921876	84.18579864501955	-687.5624389648439	-383.1018371582032	98.83771514892581	-776.047546386719	-474.6106262207032	49.2522430419922	-744.7559204101564	-245.2372589111329	54.63205337524415	-719.1731567382814	-251.688705444336	54.89730453491212	-678.7287597656251	-299.6687011718751	36.17376327514649	-635.5979003906251	
521	2.6	94.0983352661133	1038.9853515625	-957.258239746094	-42.71923828125001	1022.239135742188	-981.7654418945315	-68.90211486816408	1012.756469726563	-848.7817382812502	-98.31238555908206	970.9971313476565	-913.5737304687502	-394.7257385253907	829.8005371093752	-910.9837036132815	-70.55147552490236	818.100524902344	-910.0401000976565	-61.14001083374025	846.7964477539065	-1076.118408203125	-143.8513946533203	848.8038330078127	-1204.739379882813	-170.9683837890625	807.4310302734377	-1212.919555664063	-186.1709289550782	842.5606079101565	-1260.1728515625	-272.2538146972657	817.657897949219	-1324.516845703125	-324.5559082031251	883.4305419921877	-1310.0478515625	-440.7965698242189	704.3297119140626	-1149.344604492188	-416.115936279297	644.4016723632814	-1185.769897460938	-419.4467773437501	692.5412597656251	-1091.246948242188	-72.40763092041017	844.1669921875002	-745.7135620117189	-162.9878540039063	877.6384887695315	-608.1303710937501	-191.3140106201172	839.7391357421877	-593.1170654296876	-210.4885864257813	884.6430664062502	-557.1494140625001	-286.6359863281251	863.0989990234377	-500.3633117675782	-346.3851013183594	920.8225708007815	-547.6074218750001	-459.7006225585939	723.4489746093751	-655.4519653320314	-424.4004516601564	667.9413452148439	-617.1284790039064	-422.3692016601564	702.6389160156251	-715.0345458984376	-405.6094665527345	637.5798339843751	-1035.142211914063	-410.0318908691407	615.2271728515626	-789.5696411132815	-510.1780395507814	773.4488525390627	-896.7385253906252	-540.5919189453126	761.2129516601564	-923.362243652344	-540.8723754882814	760.1019287109376	-867.0629882812502	-330.6264648437501	532.8490600585939	-1147.973266601563	-244.6568298339844	530.1493530273439	-1155.21923828125	-222.7680816650391	563.6600952148439	-1125.724731445313	-212.1152496337891	477.6877746582032	-1156.141723632813	-175.326904296875	439.4963378906251	-1161.12451171875	-155.3944091796875	425.3221130371095	-1036.663818359375	-195.1580352783204	252.0431060791016	-1122.133422851563	-270.8748779296876	251.8352355957032	-1170.321166992188	-240.6560974121094	225.9025573730469	-1150.923950195313	-279.5401916503907	158.8112030029297	-1116.8935546875	-394.9042358398439	87.72521209716798	-1142.811157226563	-371.7781066894532	103.734489440918	-1055.895874023438	-457.4248352050782	53.77319717407228	-1096.561279296875	-227.2205810546876	54.14406967163087	-1093.129760742188	-232.5843505859376	54.0599708557129	-1131.355712890625	-274.2896423339844	36.44150543212891	-1182.213256835938	-405.0716552734376	545.5822143554689	-668.6738891601564	-339.6036376953126	545.8972167968751	-661.4722900390626	-321.6568908691407	573.2578735351564	-669.9920654296876	-287.9480895996094	481.2567138671876	-654.6919555664064	-169.6351776123047	411.6697082519532	-652.6007080078126	-149.9525604248047	395.6350097656251	-772.607116699219	-196.8713836669922	258.5156555175782	-736.3412475585939	-266.6391601562501	207.7442169189454	-669.1296386718751	-247.9939270019532	193.1882324218751	-710.9737548828126	-286.9825134277344	165.5213012695313	-742.4749755859376	-400.968231201172	84.20265960693361	-687.5986938476564	-383.1662902832032	98.87754821777347	-776.0581054687502	-474.616180419922	49.27864456176759	-744.8261108398439	-245.2344207763672	54.55276489257814	-719.2442626953126	-251.7246093750001	54.997127532959	-678.7175903320314	-299.6862487792969	36.1895866394043	-635.6566162109376	
522	2.605	94.02605438232423	1038.420043945313	-957.3269042968752	-42.57215118408204	1021.822021484375	-981.7146606445315	-68.46337127685548	1012.218811035156	-848.595153808594	-98.10290527343753	970.5552978515627	-913.5703125000002	-394.493621826172	829.464294433594	-910.8966064453127	-70.2823944091797	817.6228637695315	-909.9417724609377	-60.98745346069337	846.3430786132815	-1076.126708984375	-143.6443786621094	848.3699951171877	-1204.9169921875	-170.8508758544922	807.0495605468752	-1212.955688476563	-185.948959350586	842.1958618164065	-1260.159301757813	-272.0424194335938	817.3215332031252	-1324.612548828125	-324.3900756835938	883.1463012695315	-1309.986694335938	-440.7801513671876	704.1414794921876	-1149.170776367188	-416.069061279297	644.1975708007814	-1185.636108398438	-419.2948303222657	692.4057006835939	-1091.105346679688	-72.20300292968751	843.728942871094	-745.6451416015626	-162.6571960449219	877.2597656250002	-608.0752563476564	-191.020248413086	839.4011230468752	-593.0373535156251	-210.1536254882813	884.325866699219	-557.1046142578126	-286.2541503906251	862.7891235351565	-500.2962646484376	-346.0383605957032	920.5142822265627	-547.5030517578126	-459.4056091308595	723.1878662109376	-655.3120117187501	-424.1581115722657	667.6619873046876	-617.0098266601564	-422.1749267578126	702.3426513671876	-714.9293823242189	-405.1351928710939	637.2985839843751	-1034.729736328125	-409.7531738281251	615.2008056640626	-789.1643676757815	-510.0217285156251	773.1917724609377	-896.6081542968752	-540.3505249023439	760.9059448242189	-923.1975097656252	-540.6987304687501	759.8482666015626	-866.917175292969	-330.5380859375001	532.7401123046876	-1147.828247070313	-244.5503387451172	530.0283203125001	-1155.067626953125	-222.7037963867188	563.6007080078126	-1125.539184570313	-212.0356445312501	477.6294860839845	-1155.96142578125	-175.2479553222657	439.4279785156251	-1161.015258789063	-155.2776184082032	425.2539978027345	-1036.511108398438	-195.1186676025391	251.9742279052735	-1122.06298828125	-270.8039245605469	251.8226165771485	-1170.289794921875	-240.6389770507813	225.8598327636719	-1150.822509765625	-279.4803771972657	158.8265533447266	-1116.79736328125	-394.8912963867189	87.7654495239258	-1142.768798828125	-371.7257385253907	103.7205963134766	-1055.896606445313	-457.4095458984376	53.78422927856447	-1096.549438476563	-227.2192687988282	54.14310836791994	-1093.130249023438	-232.6052551269532	54.06941604614259	-1131.3427734375	-274.3063964843751	36.4837989807129	-1182.234497070313	-404.8655395507814	545.3248291015626	-668.5245971679689	-339.4396972656251	545.7455444335939	-661.3984985351564	-321.4723815917969	572.9954223632814	-669.9150390625001	-287.7586059570313	481.0701293945314	-654.6145019531251	-169.3638153076172	411.488494873047	-652.5948486328126	-149.5098419189453	395.5980224609376	-772.7110595703127	-196.7108612060547	258.4160156250001	-736.3303833007814	-266.4909362792969	207.6824951171876	-669.1364746093751	-247.914535522461	193.1026000976563	-710.9289550781251	-286.9573364257813	165.3661041259766	-742.5392456054689	-400.9346008300782	84.2235565185547	-687.6389160156251	-383.0500183105469	98.88340759277347	-776.0849609375002	-474.6081542968751	49.29170608520509	-744.8492431640626	-245.2037658691407	54.51565170288087	-719.2505493164064	-251.7637786865235	54.99694824218751	-678.7506713867189	-299.6780700683594	36.22616958618165	-635.6088256835939	
